<mxfile host="app.diagrams.net" modified="2024-03-22T21:15:28.160Z" agent="Mozilla/5.0 (Windows NT 10.0; Win64; x64) AppleWebKit/537.36 (KHTML, like Gecko) Chrome/123.0.0.0 Safari/537.36" etag="-Pfa7Pq_ZRFh1muncefG" version="24.0.8" type="github">
  <diagram name="Page-1" id="xzhQ3rKRUncRgA5fxZir">
    <mxGraphModel dx="1221" dy="657" grid="1" gridSize="10" guides="1" tooltips="1" connect="1" arrows="1" fold="1" page="1" pageScale="1" pageWidth="850" pageHeight="1100" math="0" shadow="0">
      <root>
        <mxCell id="0" />
        <mxCell id="1" parent="0" />
        <mxCell id="6O4LgKuQHUf7rGlTu1do-2" value="" style="shape=mxgraph.signs.people.female;html=1;pointerEvents=1;fillColor=#000000;strokeColor=none;verticalLabelPosition=bottom;verticalAlign=top;align=center;" vertex="1" parent="1">
          <mxGeometry x="380" y="290" width="76" height="98" as="geometry" />
        </mxCell>
      </root>
    </mxGraphModel>
  </diagram>
</mxfile>
